<?xml version="1.0" standalone="no" ?>
<!DOCTYPE svg PUBLIC "-//W3C//DTD SVG 20010904//EN"
	"http://www.w3.org/TR/2001/REC-SVG-20010904/DTD/svg10.dtd">
<svg
	version="1.0"
	xmlns="http://www.w3.org/2000/svg"
	width="512.000000pt"
	height="512.000000pt"
	viewBox="0 0 512.000000 512.000000"
	preserveAspectRatio="xMidYMid meet"
>
<g
		transform="translate(0.000000,512.000000) scale(0.100000,-0.100000)"
		fill="#000000"
		stroke="none"
	>
<path
			d="M0 2560 l0 -2560 1280 0 1280 0 0 2560 0 2560 -1280 0 -1280 0 0
-2560z m989 1666 c14 -17 27 -85 72 -386 56 -379 164 -949 182 -968 45 -44 65
58 132 656 49 440 69 585 88 653 l13 44 322 3 c201 1 330 -1 341 -8 27 -14 30
-73 46 -1180 8 -531 19 -1026 24 -1100 5 -74 11 -316 13 -537 l3 -401 -25 -27
-25 -27 -199 5 c-186 4 -199 6 -220 26 l-21 22 -5 1024 c-4 769 -8 1027 -17
1036 -23 23 -40 1 -52 -63 -6 -35 -51 -371 -101 -748 -143 -1091 -165 -1235
-191 -1266 -17 -20 -232 -20 -248 0 -7 8 -30 131 -52 273 -21 142 -46 294 -54
338 -8 44 -28 175 -45 290 -25 170 -97 618 -181 1118 -12 76 -36 114 -64 103
-17 -6 -18 -24 -11 -334 4 -180 13 -545 22 -812 19 -607 16 -978 -7 -993 -11
-7 -70 -7 -175 -1 l-159 9 -19 55 c-18 51 -20 99 -27 705 -4 358 -13 1059 -19
1559 -8 668 -9 911 0 920 17 17 106 23 386 25 216 1 264 -1 273 -13z"
		/>
<path
			d="M4056 4204 l-26 -29 -1 -290 c-1 -159 -4 -771 -8 -1360 l-6 -1070
-26 -50 c-32 -60 -69 -89 -130 -102 -90 -19 -201 34 -226 108 -15 47 -33 232
-33 349 0 53 -3 151 -6 217 -7 113 -8 121 -28 122 -105 9 -240 11 -283 6 -57
-7 -66 -19 -50 -67 6 -19 4 -35 -10 -60 -16 -29 -18 -58 -17 -238 0 -225 9
-296 57 -430 85 -243 181 -337 387 -376 131 -25 348 -15 459 21 74 24 92 34
139 83 101 104 151 200 183 360 18 89 19 156 19 1350 0 1320 -3 1419 -44 1460
-13 13 -47 17 -169 20 l-154 4 -27 -28z"
		/>
</g>
</svg>
