<?xml version="1.0" standalone="no" ?>
<!DOCTYPE svg PUBLIC "-//W3C//DTD SVG 20010904//EN"
	"http://www.w3.org/TR/2001/REC-SVG-20010904/DTD/svg10.dtd">
<svg
	version="1.0"
	xmlns="http://www.w3.org/2000/svg"
	width="512.000000pt"
	height="512.000000pt"
	viewBox="0 0 512.000000 512.000000"
	preserveAspectRatio="xMidYMid meet"
>
<g
		transform="translate(0.000000,512.000000) scale(0.100000,-0.100000)"
		fill="#000000"
		stroke="none"
	>
<path
			d="M2560 2560 l0 -2560 1280 0 1280 0 0 2560 0 2560 -1280 0 -1280 0 0
-2560z m1876 1648 c41 -41 44 -140 44 -1460 0 -1194 -1 -1261 -19 -1350 -32
-160 -82 -256 -183 -360 -47 -49 -65 -59 -139 -83 -111 -36 -328 -46 -459 -21
-206 39 -302 133 -387 376 -48 134 -57 205 -57 430 -1 180 1 209 17 238 14 25
16 41 10 60 -16 48 -7 60 50 67 43 5 178 3 283 -6 20 -1 21 -9 28 -122 3 -66
6 -164 6 -217 0 -117 18 -302 33 -349 25 -74 136 -127 226 -108 61 13 98 42
130 102 l26 50 6 1070 c4 589 7 1201 8 1360 l1 290 26 29 27 28 154 -4 c122
-3 156 -7 169 -20z"
		/>
<path
			d="M398 4211 c-31 -3 -62 -11 -68 -17 -9 -9 -8 -252 0 -920 6 -500 15
-1201 19 -1559 7 -606 9 -654 27 -705 l19 -55 159 -9 c105 -6 164 -6 175 1 23
15 26 386 7 993 -9 267 -18 632 -22 812 -7 310 -6 328 11 334 28 11 52 -27 64
-103 84 -500 156 -948 181 -1118 17 -115 37 -246 45 -290 8 -44 33 -196 54
-338 22 -142 45 -265 52 -273 16 -20 231 -20 248 0 26 31 48 175 191 1266 50
377 95 713 101 748 12 64 29 86 52 63 9 -9 13 -267 17 -1036 l5 -1024 21 -22
c21 -20 34 -22 220 -26 l199 -5 25 27 25 27 -3 401 c-2 221 -8 463 -13 537 -5
74 -16 569 -24 1100 -16 1107 -19 1166 -46 1180 -11 7 -140 9 -341 8 l-322 -3
-13 -44 c-19 -68 -39 -213 -88 -653 -67 -598 -87 -700 -132 -656 -18 19 -126
589 -182 968 -45 301 -58 369 -72 386 -9 12 -57 14 -273 13 -143 -1 -287 -5
-318 -8z"
		/>
</g>
</svg>
